<?xml version="1.0" encoding="utf-8"?>
<svg xmlns="http://www.w3.org/2000/svg" xmlns:xlink="http://www.w3.org/1999/xlink" version= "1.1" width="300px" height="300px" viewBox="450 814 300 300">
<g id="layer1" opacity="0.0">
<g style="fill:rgb(0,0,0); fill-opacity:1.0; stroke-linejoin: miter">
<path d="M596.3831,821.3495L594.5887,823.7943Q594.762,824.1454,594.8294,824.3041Q594.9222,824.5126,595.0086,824.73035Q595.11554,824.225,595.40656,823.50037Q595.55255,823.13806,595.74445,822.7206Q595.8118,822.54675,596.42365,821.3456L596.3831,821.3495 M594.99396,824.80066L594.97296,824.92224L594.95825,825.03644L594.949,825.14386L594.94604,825.24396L594.94946,825.3372L594.95825,825.42316L594.9734,825.5013L594.9944,825.5726L595.02075,825.6375Q595.34644,826.11896,595.5569,826.4598Q595.4104,825.8709,595.2273,825.32794L595.1648,825.14874Q595.1018,824.96954,595.0345,824.79724L594.99396,824.80066 M662.44653,1037.8894L662.3855,1037.9924Q662.1365,1038.3962,661.8689,1038.7063L662.0071,1038.633L662.1277,1038.5544L662.2317,1038.4734L662.3176,1038.386L662.38696,1038.2957L662.4387,1038.1995L662.4724,1038.0989L662.489,1037.9949L662.48804,1037.886L662.44653,1037.8894 M595.5842,826.5726L595.95386,828.6746Q597.0138,837.59045,591.3865,854.60846Q591.36816,867.38745,594.36017,883.8266Q594.60034,886.3968,592.94556,889.0159Q591.7468,890.17755,589.12915,887.8387Q582.89294,876.1314,581.10486,877.08356Q579.349,876.2305,583.6066,887.11346Q583.1086,889.737,581.2497,888.28143Q576.6327,874.41656,573.2901,868.26636Q569.42834,861.1903,568.919,865.5281Q567.1997,866.8966,578.51337,890.7824Q579.5401,897.97363,578.4229,898.8823Q565.30273,897.65125,554.9395,893.4717L530.61066,875.57306Q527.06915,873.6121,526.7845,875.2137Q526.2805,879.3942,530.71796,885.64417Q549.3423,897.4535,563.0012,919.24255Q562.6824,920.62195,560.5515,919.8739Q545.73517,911.70166,541.86646,912.2606Q532.8963,911.954,532.58276,914.92316Q532.57983,916.06177,534.22675,917.9387Q541.0836,922.16174,541.3028,922.7828Q542.75104,923.8565,540.8497,924.4996Q539.2149,925.5074,527.58954,918.0324Q524.90106,917.0485,523.5964,918.0461Q521.5173,919.25116,525.8004,923.87115L545.3476,938.48267Q549.52625,942.3092,548.2787,943.569Q537.15936,952.73755,524.9808,943.49554Q508.62625,947.6375,508.52414,950.3044Q508.2946,953.6065,512.5128,954.9531Q530.99634,948.91003,536.7477,955.92053Q542.3799,966.8436,511.84476,966.01685Q514.809,970.17395,524.2553,971.84534Q534.2114,967.33826,537.3872,968.53796Q539.3681,970.574,538.4521,971.5769Q529.2889,975.5171,528.7078,976.8125Q526.6737,978.55566,527.6384,981.0223Q527.82056,984.21906,537.639,979.7465Q541.07306,982.0385,540.906,983.2034L515.89215,995.75226Q513.3004,997.2952,513.9518,998.4749Q516.0938,999.08624,541.48834,995.481L548.1328,996.78754Q556.004,993.5866,556.04895,993.10565Q556.923,992.91766,557.22473,993.94305Q557.27734,999.56445,554.7612,1003.4374Q544.8568,1010.5187,541.04614,1016.05695Q538.96936,1025.5161,539.7687,1025.0972Q543.2546,1024.4426,546.39026,1027.5078Q547.7891,1029.6211,547.189,1033.5715Q545.392,1039.1372,534.4417,1052.679Q531.64764,1060.615,533.8478,1063.8767Q535.9444,1066.1453,541.3073,1060.4976Q547.6941,1048.7917,567.34875,1025.9436Q570.34924,1023.451,577.9322,1023.1878Q582.5021,1024.3457,582.5694,1027.5037Q579.3186,1045.9155,573.01044,1052.02L574.50397,1060.4463Q576.021,1063.794,579.02246,1060.6812Q585.5793,1051.0864,589.91583,1040.884Q593.31775,1036.9014,594.38513,1038.0894L596.1871,1055.8215Q602.5434,1063.967,602.4633,1065.7429Q597.91327,1076.062,596.59534,1082.1826Q594.7203,1087.8894,597.82275,1092.4307Q604.1377,1092.9163,607.7467,1083.7974Q606.85657,1079.7983,611.2606,1069.0532L612.17346,1047.842Q612.69794,1042.595,613.4758,1042.5259Q620.863,1049.2859,618.2118,1068.4368Q621.9698,1050.9485,620.861,1046.6462Q627.62897,1051.094,630.05035,1055.7249Q633.1268,1069.8479,632.80914,1085.594Q634.3574,1086.9702,635.4747,1085.8083Q639.1846,1081.9548,638.8311,1050.2698Q640.3668,1048.459,646.84436,1052.0947L649.6045,1053.7966Q649.6592,1055.156,652.352,1057.9287Q654.0927,1059.4819,656.8612,1060.875Q659.2122,1061.7788,659.3417,1059.3872Q659.4022,1057.7563,657.0796,1054.0144L641.89825,1035.4573Q639.9022,1030.9043,641.5336,1029.3774Q645.48926,1025.8655,649.6992,1027.3987Q657.13654,1034.4915,662.4812,1037.8313Q665.8299,1034.6724,661.6553,1025.7112L663.3326,1023.3549Q667.68463,1022.24457,676.56195,1028.0823Q679.73676,1027.8469,685.376,1021.9423L685.52594,1020.77057Q682.5772,1020.418,677.9421,1016.48065Q675.4191,1013.4489,673.9725,1010.5653Q675.43243,1010.8524,679.84265,1006.53125Q693.33136,1010.7593,705.78546,1006.6183L685.82666,998.81274L681.6655,995.3933Q680.4942,992.9164,682.18463,991.0297L694.6584,983.5085Q695.7659,982.6512,696.2576,979.40656Q696.474,978.4443,694.4042,976.54584Q689.9971,972.9024,685.6587,970.33795Q683.7691,968.43524,684.253,967.2951Q685.3517,964.2293,687.3888,963.493Q703.9889,967.92804,713.3528,961.066Q717.15845,958.33014,712.9901,957.00946Q709.68823,954.6993,692.28253,954.9366Q690.5379,954.7432,691.34503,952.8038Q693.0287,950.6174,707.807,950.2077L715.8584,947.205Q731.0651,940.49774,729.70044,934.5921Q729.5682,931.59955,726.97644,932.42474Q713.2702,939.71014,696.83356,944.413Q687.01465,946.2259,683.4854,942.54926Q679.7935,939.1484,683.14764,935.1646Q683.89465,933.92633,702.4191,932.0959Q712.1654,926.9101,713.91705,919.6359Q714.7135,916.0511,713.963,916.56525Q697.0536,927.1528,689.7703,927.2796Q684.4207,926.8919,678.0278,920.9692Q676.082,918.47064,676.95166,915.70465L686.6858,904.8188L693.7754,892.8533Q694.5279,890.1605,692.97076,889.5897Q691.6407,889.1996,689.54596,890.7816Q683.451,899.7949,675.0041,904.6839Q662.1543,913.2227,660.8906,909.99664Q659.82434,906.4543,661.03436,905.3016Q678.00635,890.2888,680.4078,883.68884Q688.5741,869.7303,689.354,863.2162Q669.271,887.6897,653.9363,896.7646Q645.9646,898.53265,645.6854,892.253Q644.79626,890.418,651.48206,874.0161Q651.8717,872.0835,650.4127,871.46484Q648.6422,872.16406,634.9426,891.6591L622.57776,897.0607Q621.25653,896.39435,621.8006,892.2026Q627.8246,883.4029,629.78564,878.6057Q630.5801,877.74,631.61884,869.3237Q633.07556,856.40607,628.24457,851.18396Q628.9353,864.3531,626.524,870.13464Q624.2383,877.8064,619.3524,885.6514Q617.35095,887.837,615.7582,887.76373Q610.618,884.38715,604.8705,884.15094Q603.953,883.0943,604.1317,881.3536Q609.12885,874.86,608.8322,863.12256Q599.8781,831.8156,595.5842,826.5726"/>
</g>
</g>
<g id="layer2" opacity="0.0">
<g style="fill:rgb(0,0,0); fill-opacity:1.0; stroke-linejoin: miter">
<path d="M535.8928,827.58484L535.8928,827.5853L535.5554,829.1371L535.2947,830.5917L535.11066,831.9496L535.0038,833.20996L534.97253,834.374L535.01794,835.4404L535.14,836.41016L535.33875,837.2822L535.61365,838.0576L535.6708,838.0635L535.9358,827.58386L535.8928,827.58484 M535.67126,838.0679L535.64594,839.044Q539.92285,850.2995,540.4346,856.76483Q535.11597,872.6973,535.88745,874.2652Q534.05206,874.17303,545.43445,896.54175Q546.2011,899.96326,544.6133,906.36475Q535.8157,919.4306,520.4107,933.47363Q512.81415,940.23755,504.05304,940.2969L518.7094,968.6809L524.2563,975.7142Q525.5517,978.8382,524.47754,981.8901L514.19666,1007.5861Q512.0668,1011.29315,496.13147,1019.57947L480.45502,1042.5808Q492.48865,1038.9105,517.6128,1026.3262Q530.6185,1023.75305,545.4982,1017.97485Q548.18964,1018.7283,555.03284,1025.9332L562.0226,1024.0269L564.9949,1041.3479Q575.91766,1045.5304,579.2282,1048.6149Q587.8369,1041.4626,588.9756,1042.1194Q591.61224,1041.4767,597.3545,1050.5969Q598.61914,1051.4797,606.8427,1052.4733Q619.0084,1041.3906,624.8898,1042.9287Q632.23645,1051.5562,642.9156,1055.2479L676.55176,1089.2405Q679.8003,1092.0886,681.22504,1091.4078Q684.04083,1087.4038,681.3724,1081.2651L671.78937,1071.1553Q669.7708,1068.3584,666.3259,1055.9745Q660.75116,1049.9812,658.04315,1043.1189Q654.8892,1032.3087,657.061,1024.4882Q659.2234,1017.5099,663.5325,1016.14465Q680.34424,1016.42847,680.72845,1014.24866Q683.11566,1014.4645,684.5495,998.2298L691.71814,990.20746Q688.75226,978.3387,690.4758,974.94794L690.9802,974.2326L712.4846,964.6012Q700.7182,967.9872,687.8931,959.23Q686.0909,956.7007,685.4429,949.9052Q691.2096,931.52,687.2926,925.5635Q685.6232,922.23193,672.01685,916.7594Q670.39484,915.1466,669.36115,909.83417L672.909,881.9405Q679.1001,869.0374,682.1175,856.8268L690.7597,843.9432Q692.8607,836.6233,691.1966,834.819Q690.1498,834.16187,688.67615,836.0725Q679.3557,849.70123,665.45483,867.14264L654.97955,877.2353Q653.6602,879.47943,631.35504,886.29L625.6969,884.6412Q619.8338,889.9529,617.8079,890.6897Q616.3919,890.94116,615.79675,889.27625Q614.82697,886.58765,615.2405,878.4406Q615.00903,877.27606,613.3093,876.7087L585.35284,885.91205L574.2933,878.76996Q563.4428,881.4415,559.1304,878.9617Q553.4263,873.7551,553.06885,870.8967Q553.6609,850.7499,550.25366,847.1024Q545.948,838.9769,535.67126,838.0679"/>
</g>
<g style="fill:rgb(0,0,0); fill-opacity:0.99607843; stroke-linejoin: miter">
<path d="M737.4332,684.89014L738.2285,684.09485L739.02386,683.2995L737.4332,684.89014"/>
</g>
</g>
<g id="layer3" opacity="0.0">
<g style="fill:rgb(0,0,0); fill-opacity:1.0; stroke-linejoin: miter">
<path d="M607.51495,835.9525L585.1988,836.25946Q578.1593,836.6814,575.0769,840.7206Q572.0276,843.4833,569.53,859.8026Q568.8635,861.8055,564.7439,864.91974Q549.75775,856.5236,532.8634,858.1312Q529.82434,859.14294,525.6486,862.01514Q518.3098,872.7613,510.8177,875.9948Q509.10284,878.8796,506.17706,888.4997Q494.59607,902.8406,494.8329,908.67163Q494.51013,913.14233,495.51062,915.02026Q503.19904,922.1276,503.89386,925.68134Q504.2542,928.0817,503.95636,929.34247L496.11755,946.08765Q496.2743,947.17847,501.13556,951.5338Q501.49982,953.39905,500.67902,956.9606L499.62915,960.0454Q493.85773,964.6393,487.95007,972.6472L483.59558,979.70483L483.41248,981.3357Q484.19666,986.33374,487.50183,994.5808Q484.7284,1006.52124,486.1698,1012.57983Q493.21313,1022.3081,501.50897,1028.1254Q504.83313,1043.762,506.71594,1044.2463Q508.28235,1045.3645,516.7945,1044.091Q523.70605,1049.209,530.44476,1047.8163Q536.48914,1054.491,538.1253,1054.5681Q557.45325,1053.4213,558.22815,1054.89Q560.4957,1055.7084,562.0474,1058.0676Q562.0572,1068.8077,564.3228,1069.4513Q566.2911,1070.8654,575.5609,1069.6844Q583.21906,1080.6687,598.6271,1082.2212Q604.60547,1082.2719,617.0556,1069.1555Q619.0267,1078.4005,630.6438,1072.1289Q633.213,1069.827,634.8634,1065.0624Q634.4435,1051.4882,637.58215,1049.4257L642.56354,1050.612L651.5346,1048.1051Q658.3216,1051.478,669.5714,1048.3518Q672.0831,1048.6252,678.5962,1032.4934Q682.8179,1034.9524,687.1996,1035.1329Q689.51697,1034.6534,692.5794,1030.8799L701.4226,1018.3086Q702.0486,1017.3076,702.55396,1015.17096L702.5857,1012.336Q697.02527,1004.2424,697.871,1002.3879Q710.4171,991.6328,713.7926,978.5411Q713.2623,974.65045,712.16516,974.25104Q705.1521,976.95917,703.3484,974.74335Q700.72595,971.59894,702.19415,963.0326Q704.6058,956.891,715.97766,943.8664Q717.8678,940.9045,718.66174,937.0891Q719.8541,931.58325,706.8201,916.32965L703.663,912.8532L692.814,908.05646L692.3902,899.5076L684.8713,890.8437Q684.36304,888.4942,688.4845,882.1797Q688.5343,880.0488,687.6393,879.10254Q684.57886,876.25696,679.3684,877.5343Q677.38074,874.80884,668.77386,871.1878Q664.77106,859.56006,659.2203,852.8628Q631.39606,839.2657,613.5403,842.26196L607.51495,835.9525"/>
</g>
</g>
<g id="layer4" opacity="0.0">
<g style="fill:rgb(0,0,0); fill-opacity:1.0; stroke-linejoin: miter">
<path d="M546.3359,839.9281L546.0712,841.7435Q545.14966,850.21875,549.25793,868.3298Q550.612,872.6224,557.81665,882.4653L561.36224,898.0124Q561.5297,900.38983,560.7553,900.8249Q555.28613,900.9856,554.39185,904.6018Q552.9456,908.66296,558.45557,909.4138Q558.8365,911.5477,557.89777,913.7084Q553.3019,920.5708,543.70667,920.43506Q540.61957,924.5338,540.7788,936.9695Q540.51294,937.8474,539.1392,939.0526Q532.1924,940.69226,523.89636,949.97864L498.6367,958.0316Q507.90503,966.7206,512.10815,969.182Q534.3241,973.3257,538.12244,977.0718Q540.43616,982.85016,539.986,985.946L531.07855,1016.1145Q542.8577,1006.7255,557.3334,1004.8266Q558.8026,1004.86127,559.672,1006.1923Q560.3705,1007.07074,561.3097,1010.96576L563.8183,1013.28674Q566.18115,1024.7551,565.93365,1026.6595Q564.23395,1031.101,563.99255,1039.2324Q569.2173,1043.8317,568.81396,1046.5149Q561.6413,1066.9083,564.33685,1071.2448Q560.4331,1077.8822,560.42993,1079.6986Q563.9685,1078.0087,566.7356,1075.1135Q582.4286,1054.4183,584.5098,1051.1472Q588.9099,1044.8262,588.97534,1043.73L594.98145,1040.1465Q597.8764,1031.6971,600.57654,1030.3484Q598.9894,1029.3083,619.55365,1032.1804Q622.2502,1033.9167,627.5288,1041.0536Q628.1311,1041.7269,633.3113,1041.7513Q637.00397,1040.5175,638.7891,1041.0399Q635.347,1038.7147,634.7877,1028.4557Q636.9542,1026.7301,636.4405,1015.1826Q636.6995,1014.2407,638.34033,1013.3026L656.7766,1012.516Q665.13293,1025.228,668.4044,1023.44727Q670.49744,1022.2041,669.7857,1019.98083L665.76324,1013.95935Q666.17377,1007.04266,659.3797,993.8398Q656.1891,977.9035,657.25305,973.40985L680.73456,959.22003L689.01556,957.29816Q696.39417,952.4963,700.5867,946.40875Q709.6276,942.0898,713.18524,942.1679Q709.612,936.98773,689.48926,941.51715Q687.2092,940.212,683.86884,935.4101L659.6517,923.99884Q656.14777,923.2083,641.99347,923.2059Q640.85504,922.4642,640.6619,920.89044Q643.07837,912.8073,641.8158,908.85895Q641.41736,905.99274,635.73694,903.66315Q635.0741,903.04694,634.3419,900.5308Q634.4703,897.7763,639.49243,889.19073Q639.94775,888.3416,638.82056,887.15216Q637.1261,886.132,634.2112,887.5579Q617.00745,898.16656,614.203,899.1856Q608.8646,901.7789,607.7899,901.0811Q601.95276,897.7286,594.99445,883.7143L581.0678,881.15314Q576.91644,878.887,573.11584,868.19696Q570.8988,866.2341,562.5994,864.49866L546.3359,839.9281"/>
</g>
</g>
<g id="layer5" opacity="0.0">
<g style="fill:rgb(0,0,0); fill-opacity:1.0; stroke-linejoin: miter">
<path d="M588.3171,892.43317L597.85706,895.46136Q597.5939,895.8305,597.28723,896.0942L596.96936,896.33344L596.62976,896.51996L596.2682,896.6528L595.8849,896.7338L595.47864,896.7631L595.0514,896.7397L594.6022,896.6635L594.027,896.5014L593.42004,896.26117L592.78015,895.9438L592.1083,895.55023L591.40393,895.07855L590.66766,894.52985L589.8986,893.90485L589.0971,893.2017L588.26385,892.42145L588.3171,892.43317 M597.3183,837.53436L595.55804,841.8674Q589.2725,858.65466,595.7481,868.76794Q595.70416,869.891,590.64606,876.0189Q588.74475,886.019,586.65204,890.6109L567.88354,860.7193L571.114,871.6519Q568.82404,880.0993,569.637,885.56805L571.6332,894.64825Q572.33044,897.6033,575.11633,905.6941Q569.07196,922.84265,559.66156,906.67566L560.7027,923.1564Q557.8787,923.8673,544.80426,911.2228Q543.68317,911.8517,544.4938,914.7239Q546.5773,920.5198,549.54016,925.4075Q549.6566,928.3098,547.16956,929.3069Q543.63275,931.11163,537.177,930.7016Q520.5057,924.857,517.90753,925.41266Q514.0751,926.77704,516.368,928.1265Q521.4869,931.00836,528.87476,932.94867Q527.72,932.91644,525.5852,934.09125L508.9936,945.59357L506.29584,946.7801Q502.82593,948.32513,500.96436,948.331Q482.47318,943.3907,476.7208,943.44836Q472.25208,942.85376,469.9276,945.3782Q472.36755,944.2444,499.12085,951.3632L514.29974,958.1287L520.9367,966.38165Q534.379,967.3952,536.0077,971.4714Q537.0458,975.2741,535.2084,977.1286L521.749,988.50385Q522.59283,993.1397,536.9162,995.7372Q537.9777,996.9999,537.33636,998.75085L530.73737,1017.08997Q516.0061,1036.8364,514.6975,1040.4761Q511.2005,1047.0172,512.3743,1049.0582L532.24817,1043.1467Q552.855,1028.6063,555.29443,1029.8182Q558.91846,1029.369,553.7044,1040.7305Q563.2822,1042.8026,572.0513,1041.8241Q573.9614,1049.3212,574.73145,1048.7977Q583.0077,1041.6959,586.0812,1040.567L587.8011,1034.56Q594.33386,1046.8356,603.56946,1078.402Q605.7775,1082.9998,607.5194,1083.3365Q620.08356,1074.103,626.12195,1047.6467Q630.49225,1053.339,632.5787,1054.3263Q646.29126,1054.7686,648.0986,1055.661Q652.2719,1057.289,663.4124,1065.0398Q665.7703,1065.9246,667.7271,1065.0037Q667.99615,1064.9626,668.7723,1063.9333L664.9319,1054.3883L666.38983,1035.4253L661.3698,1025.3501Q661.3,1023.6489,669.3724,1022.308Q670.9517,1021.18005,670.8682,1020.12634Q671.27594,1019.3793,667.7398,1015.02966Q670.0737,1011.17993,669.8247,1010.2405Q659.8058,1007.3314,662.74133,1002.0902Q663.66614,1000.20544,668.7583,998.68774L669.68604,995.8069L680.0766,998.75793Q672.8886,991.1603,673.4438,990.5099Q679.49493,980.6768,680.0584,978.6475Q681.5437,975.1943,681.676,972.35834Q682.5803,970.7968,690.7817,968.10724L695.45123,959.1999Q716.34766,949.52576,720.6086,941.6282Q720.9628,940.72974,721.0639,939.70435L673.9089,947.3807Q683.08356,940.114,682.9776,937.82104L682.75104,937.3142L669.7883,941.62494Q670.4167,939.78894,671.8566,938.1854Q673.91077,933.92944,692.3241,929.5796Q694.1559,928.2085,696.4159,921.5943Q713.4079,914.87726,718.4562,909.9358Q721.6643,906.9718,720.19385,903.4728Q719.1162,901.06946,708.18665,901.8479Q704.4465,905.4251,694.90656,908.0483Q689.3822,910.2847,661.9945,913.1179Q670.5364,903.58954,669.53076,896.93134Q665.04517,895.95087,652.2858,907.3114Q649.4899,908.5204,648.29205,907.708L648.85364,884.5506Q648.9137,882.43634,647.4708,882.1385L633.0972,888.7539L627.3578,897.3927Q614.8353,875.8253,612.5301,857.67194Q611.305,856.50494,608.46375,861.5734Q607.93744,861.7111,607.2651,860.88007L597.3183,837.53436"/>
</g>
<g style="fill:rgb(0,0,0); fill-opacity:1.0; stroke-linejoin: miter">
<path d="M647.02216,933.3617L646.9894,933.3637Q646.92163,933.36896,646.8144,933.4358L646.6124,933.59296Q646.57416,933.6336,646.5517,933.6678Q646.5344,933.6931,646.52057,933.73895Q646.4561,933.806,646.28033,934.07733Q646.105,934.37506,646.10944,934.73206Q646.1117,934.92194,646.1485,935.0989Q646.2297,935.4323,646.3464,935.58545Q646.5066,935.7317,646.6835,935.78107Q646.6903,935.8097,646.99164,935.79663Q647.42163,935.7656,647.63354,935.5475Q647.76526,935.4042,647.79425,935.29224Q647.8292,935.1432,647.8291,934.91736Q647.82684,934.4896,647.6935,934.09937Q647.47064,933.6353,647.1795,933.48694L647.2099,933.44275Q647.082,933.34467,647.02216,933.3617"/>
</g>
<g style="fill:rgb(0,0,0); fill-opacity:1.0; stroke-linejoin: miter">
<path d="M598.37714,887.6809L598.17883,887.6835L589.7831,888.8043Q588.7511,889.67084,588.042,890.5948Q587.3328,891.5187,586.94653,892.50006L586.6409,893.4958Q586.4161,894.50586,586.514,895.5733L586.6926,896.65515L587.0327,897.76575Q587.50665,898.4472,588.14813,898.9773Q589.43097,900.03735,591.3837,900.4917Q592.36005,900.7189,593.5039,900.7946L594.9515,900.83075Q597.53357,900.7631,598.70917,900.4221Q600.1633,900.083,601.32513,899.4783Q602.3073,899.04913,603.71576,897.65173Q604.4189,896.85956,604.68536,895.9785Q605.034,894.6719,604.6041,893.10516Q604.43604,892.3902,604.167,891.747Q604.0956,891.38055,603.1327,889.9789Q601.51227,887.76715,598.37714,887.6809"/>
</g>
</g>
<g id="layer6" opacity="0.0">
<g style="fill:rgb(0,0,0); fill-opacity:1.0; stroke-linejoin: miter">
<path d="M584.0187,1073.241L584.04065,1073.307L584.0627,1073.373L584.0187,1073.241"/>
</g>
<g style="fill:rgb(0,0,0); fill-opacity:1.0; stroke-linejoin: miter">
<path d="M723.77466,934.5579Q721.90015,936.6136,720.2893,938.0335L720.2888,938.0413L720.85864,937.78644L721.38354,937.49786L721.8645,937.17706L722.3015,936.82355L722.6931,936.43634L723.04224,936.0164L723.34644,935.5638L723.6067,935.0794L723.822,934.5594L723.77466,934.5589 M537.1781,985.10474Q539.2084,985.5803,540.57605,986.33325L537.1332,985.1028L537.1781,985.10474 M591.0717,824.0853L590.9106,825.9452Q590.3217,829.932,591.43317,876.5753Q589.49426,881.1799,588.506,889.6237L589.58704,895.9006L589.8141,895.41376Q590.02356,896.63403,589.1979,898.0437Q586.97473,897.55493,585.7091,896.4729Q582.3634,888.9733,580.6813,887.3664Q578.81555,886.612,576.88635,887.7048L568.44006,894.7575L559.8273,898.052L559.25507,898.8372Q558.83856,899.8431,559.1081,900.56525Q562.6369,909.0135,563.22577,911.3299Q563.02313,914.5828,561.8786,914.20294L537.9127,886.3361Q531.30774,880.53876,530.4005,880.3547Q529.5758,880.41034,533.0968,885.46356L554.6545,911.0701Q556.3781,913.9539,555.63983,917.61115Q555.613,919.15216,553.2409,917.39825L543.18427,905.8343Q520.52167,898.493,524.69305,903.61505Q527.0163,909.1077,545.196,917.88116Q545.7414,917.85284,546.72437,925.5517Q537.2834,918.2415,507.96503,904.83575Q501.9748,903.01447,495.7165,904.29034L524.19556,926.9838Q529.19556,929.6713,536.28394,930.84174Q528.8186,930.5961,523.4602,937.5146Q522.0013,948.7413,517.7337,955.23834L519.6034,969.5407Q523.83386,970.1906,531.8368,968.5085L531.7186,968.97675Q526.6664,972.82733,505.70306,982.0301Q504.75775,982.67804,504.53558,983.90265Q503.94818,985.7493,508.7743,986.93823Q521.1771,984.5193,529.40125,984.4221L487.1284,1013.1411L520.41547,1007.02673L545.4511,1008.53357Q537.7168,1015.32666,537.5425,1017.6211Q547.41077,1034.6578,551.55286,1033.836Q552.12854,1035.485,551.6481,1040.485L540.8122,1073.1687Q539.06616,1080.148,539.7322,1080.7578L567.7296,1041.9147Q569.72125,1029.4727,573.4317,1026.2832Q574.7164,1026.2241,575.4473,1030.6006Q573.4435,1040.5714,571.1046,1044.5177Q571.09534,1045.4713,571.6349,1046.2506Q582.34143,1055.3278,594.28345,1057.948Q599.96747,1057.4825,605.3215,1049.923Q607.97906,1045.3247,608.9313,1041.8501Q609.1754,1035.1157,607.65826,1030.415L608.235,1027.7686Q609.01965,1024.8135,613.2809,1026.2017Q615.05725,1027.2622,615.0929,1029.0054Q616.5026,1057.6842,618.153,1065.5138Q619.6902,1076.6571,624.89185,1081.5209Q625.5906,1081.3593,625.42505,1079.9662L620.96155,1037.0073Q620.69885,1033.2441,621.4064,1031.1211Q623.8771,1029.562,626.48206,1032.6909Q627.40686,1042.8433,628.1842,1043.7065Q628.96545,1045.2983,635.0207,1048.3903L651.2684,1079.3978Q650.904,1065.9952,648.1701,1055.9147Q645.4958,1049.4928,641.54944,1046.8315Q641.5831,1043.935,643.5841,1036.896Q637.6681,1032.1816,636.55524,1024.4594Q636.68756,1021.1249,640.6431,1024.5902Q643.88586,1033.4697,651.6505,1041.1543Q655.10657,1040.2373,658.0416,1036.9736Q662.99915,1030.4536,664.56647,1025.1439Q666.76624,1027.5859,670.0806,1025.7821L671.7271,1019.40906Q683.1949,1013.6996,684.0069,1004.4862Q677.53955,997.28687,666.14404,991.95776Q695.3598,992.37366,703.8715,990.9093Q705.7929,991.254,722.874,1002.2732L723.2173,1001.9514Q723.23047,1001.0281,718.27,997.07104Q715.9487,994.9558,698.0971,982.4352Q696.4843,980.7999,696.2485,978.7648Q696.2651,980.7384,692.5898,979.4508Q688.02386,974.8165,678.7714,970.46783Q691.8339,970.94147,697.2869,965.60645Q698.8089,964.4458,698.4051,964.0034Q691.07355,965.21826,689.7913,964.6216L694.23663,959.8276Q690.66144,959.7192,687.82355,958.24896Q686.6341,957.3129,687.6463,955.8901Q689.24493,953.9926,693.9124,951.1762Q706.3367,944.82263,716.16626,940.98083Q718.9553,939.35583,720.2483,938.06915L719.31226,938.36554L712.3015,935.2601Q678.9974,943.1816,671.54865,939.52924Q675.3899,934.31036,679.8982,931.596Q683.0813,933.3143,697.3528,929.0169L706.43036,925.2903L723.1125,916.77905Q725.5656,917.70337,727.8454,916.89624Q729.22723,916.4612,728.3254,913.8601L723.1213,916.7815Q710.5583,914.7283,708.4738,915.8567L662.07886,932.3211Q663.03687,929.1409,677.1638,920.4295Q675.011,916.15753,676.9367,912.4739L693.41754,893.57825Q695.753,890.6896,695.8785,888.901Q695.08795,885.35706,682.41864,895.54266Q672.53827,909.6404,659.55396,916.9183Q655.8396,916.65265,656.0403,914.43Q661.9465,907.6199,662.236,905.63696Q649.84296,898.67163,638.56696,889.41907Q638.02057,888.74915,634.9225,891.2414Q633.317,892.2204,623.1935,902.40796Q621.71204,898.76,626.27594,877.8683Q626.023,876.49817,621.93756,880.6998Q620.6241,880.69836,620.62213,879.7262Q621.3467,859.624,620.6245,844.3369Q609.1285,868.4767,613.23645,901.4602Q611.30725,910.7986,606.59875,910.739L604.17,877.51575Q598.25934,860.06506,598.3696,846.74805L591.0717,824.0853"/>
</g>
<g style="fill:rgb(0,0,0); fill-opacity:1.0; stroke-linejoin: miter">
<path d="M557.51544,1072.5013L557.0283,1072.7242L557.0268,1072.7507L557.0397,1072.7642L557.0669,1072.7645L557.10846,1072.752L557.16437,1072.7264Q557.2678,1072.6708,557.3354,1072.6259Q557.41736,1072.5734,557.52106,1072.5013L557.51544,1072.5013"/>
</g>
<g style="fill:rgb(0,0,0); fill-opacity:1.0; stroke-linejoin: miter">
<path d="M554.76294,1069.8168L554.74664,1069.8169Q554.5878,1069.8173,554.404,1069.9061Q554.2097,1070.0282,554.1774,1070.0851Q554.04846,1070.1355,553.95874,1070.1979Q553.8544,1070.2794,553.82166,1070.3175Q553.6795,1070.5157,553.5952,1070.7307Q553.51764,1070.8845,553.43085,1071.3556Q553.4004,1071.6661,553.4548,1071.84Q553.55786,1072.1522,553.68604,1072.3494Q553.8297,1072.5719,553.94867,1072.6323Q554.01624,1072.6743,554.0938,1072.6996Q554.1714,1072.7249,554.25903,1072.7333L554.3492,1072.7374Q554.4455,1072.7372,554.56433,1072.7145Q554.67303,1072.684,554.8271,1072.619Q555.0748,1072.4943,555.2452,1072.3539Q555.9294,1071.7567,556.0245,1071.2731Q556.0733,1070.7147,555.7821,1070.3746Q555.2491,1069.829,554.76294,1069.8168"/>
</g>
</g>
<g id="layer7">
<g style="fill:rgb(0,0,0); fill-opacity:1.0; stroke-linejoin: miter">
<path d="M599.385,832.45776L599.35767,832.4617Q592.82104,836.1052,592.699,838.92554Q592.1262,841.53784,593.7931,858.145L584.965,866.21643Q580.90454,867.2135,579.94214,864.1461L579.80304,860.59344Q583.9373,854.3054,583.8284,851.6609Q580.98474,846.35144,578.70496,846.78796Q575.8276,847.79,567.7021,855.41693Q566.08435,870.0203,564.23474,871.63165Q562.057,872.8016,558.6587,870.40125L553.71936,860.57825Q546.4255,859.6594,532.7547,867.45636L527.5921,873.75323L539.3981,875.1056Q544.46735,877.77246,548.021,886.1366Q545.4688,887.3125,534.14417,883.66907L531.11304,884.81757L525.81226,890.5998Q527.64813,900.2989,530.049,899.30084Q529.27747,901.7763,528.2814,903.05365L522.96893,906.22076Q514.0935,905.2297,510.6272,906.7043Q508.97736,907.1224,504.47638,916.0344Q495.6332,915.6908,493.2626,918.2484Q491.4457,922.76306,492.68155,923.47595Q503.20337,922.78625,504.87573,924.8165Q506.81903,935.7373,504.77167,937.55273Q500.33322,939.5762,485.73477,936.27673Q485.34848,936.6682,484.6122,928.9877Q483.2861,927.52295,480.38327,929.55615L475.4736,936.9487Q473.5141,945.46716,473.59216,954.78534Q475.26746,958.5549,480.33035,957.3458Q482.83676,953.2307,490.97928,947.27356L506.00006,954.02124Q504.01324,958.31616,487.6008,961.3252Q486.87228,962.7744,484.80045,973.7059L480.99194,975.87006Q483.03485,982.9295,484.70425,984.2Q494.86478,985.43024,502.71677,981.97504Q502.9282,981.8129,504.0283,983.54047Q501.83835,990.1674,500.74753,991.4711Q497.60446,992.59906,491.97757,996.2828L492.03708,1003.5981L502.3685,1005.71796L492.10837,1004.6674L494.41006,1006.7591Q494.6268,1027.2355,495.36118,1025.9698Q499.158,1028.8613,501.99393,1025.5645L503.65018,1021.19727Q499.43832,1015.70715,500.9354,1013.7804Q501.23178,1012.005,506.7151,1010.1602L507.65607,1006.8215L508.57013,1007.22284L508.81036,1006.0832Q507.763,1006.18866,507.88654,1005.0861L513.63116,992.61444Q519.82056,991.33795,527.8238,1002.92365Q527.9312,1005.4305,526.07086,1010.24884Q518.1456,1022.9636,515.9708,1021.532L512.0309,1031.1443Q508.45575,1032.493,497.1497,1034.2334L495.26688,1036.831Q495.134,1040.4364,495.82736,1041.1346Q500.5085,1039.9159,511.502,1040.8795Q513.17145,1041.4303,515.0733,1043.0446L515.75244,1045.8646L506.92682,1056.1343Q506.80713,1060.6029,508.29297,1063.5453Q511.71234,1066.2366,520.57166,1065.9943L526.3998,1047.5579Q527.86365,1045.0793,530.6664,1045.4475Q534.5095,1046.5762,537.86597,1053.5977Q536.3318,1051.6953,527.63745,1068.6934Q527.821,1076.6151,530.5524,1077.5643Q532.5519,1077.8834,532.8082,1077.3961L542.8741,1062.2097L564.4279,1085.456Q568.0636,1088.4092,569.2726,1087.6221Q570.46936,1087.3838,570.60754,1083.71Q567.54846,1082.5625,561.77374,1071.4955Q567.8143,1062.4935,576.5739,1058.8215L578.14813,1059.969L581.68756,1068.6261L584.1987,1070.9608Q586.57806,1071.575,588.1968,1069.7919L590.2588,1062.5781Q590.43066,1062.2812,591.8418,1061.8525L603.0329,1071.2905Q604.71844,1071.6802,607.4909,1070.5679L608.0089,1071.7933Q608.93225,1078.0834,606.3302,1080.8744L602.48114,1082.0503L587.99945,1079.6179L584.9272,1082.0701Q583.69574,1086.867,585.7152,1090.9176L599.49976,1086.4722L608.94135,1095.3203L614.1445,1094.4248Q612.64105,1092.6426,626.34357,1078.6006Q626.6478,1075.715,629.08435,1071.0021L632.2723,1069.6183Q636.5403,1074.0127,635.1799,1081.9735Q636.4113,1083.6199,640.9908,1078.2771Q642.5611,1078.0144,643.7408,1078.8347Q645.8397,1095.7689,648.7567,1094.0453Q649.97205,1094.9252,660.425,1085.8176L660.4074,1084.6946Q657.5789,1082.4047,655.36755,1076.403Q655.246,1075.4313,658.55115,1071.3727Q674.6427,1062.1117,674.005,1070.7523Q675.51483,1052.7067,675.0749,1053.7438Q676.96063,1053.2067,684.5655,1057.9974Q685.7178,1057.0803,687.53076,1053.7494Q686.8819,1051.1919,676.44855,1044.2761Q685.98883,1040.7163,691.8804,1036.1069Q692.20264,1034.9028,688.75745,1030.6189Q681.4402,1031.1356,675.64343,1026.3408Q675.4613,1025.8896,675.8939,1023.83984Q682.4427,1022.2002,685.7473,1020.1415Q686.1565,1020.12683,680.1811,1013.81366L680.40717,1012.57245Q684.4251,1010.97076,689.8649,1015.8798Q698.5679,1031.3121,699.6117,1031.4868Q704.41003,1032.3491,711.6155,1024.2963Q713.2044,1020.3374,713.2176,1014.3111L698.1246,1010.76056Q697.1242,1010.3505,695.3659,1006.7119Q694.40204,1006.45605,702.29944,998.3418L709.9961,994.4316Q714.9701,998.3992,717.24646,995.0799L708.36145,987.5948Q709.34534,986.1612,716.17285,983.10156Q716.8032,981.6963,716.06396,980.36426Q714.08795,977.0958,703.61743,977.3938L709.82733,969.1585Q710.0813,965.5004,709.3318,963.9096L711.3952,962.22687L715.66077,960.91437L728.4257,962.78815Q730.03503,961.2306,729.98474,959.91907L728.72314,956.5725L714.2337,948.0182Q715.71857,942.14716,723.2038,936.5738Q723.57196,936.1148,717.6927,931.87964Q719.40216,925.6482,718.5614,922.23035Q715.6933,920.6815,710.4468,919.7197L708.88684,917.254Q708.27795,916.37415,709.53284,914.33215L718.0244,911.99615L718.5962,910.95416Q718.7041,909.9727,717.0606,907.216Q712.89075,905.19354,708.2502,903.6546Q708.18036,898.9456,708.8122,896.93L707.7819,895.7982Q705.26984,893.61273,701.7714,894.8697L699.16095,903.6088L697.81384,904.86176Q695.12103,905.437,687.6192,900.067L682.3453,901.98303Q680.3669,895.6248,680.8108,894.5907L686.42346,885.1619Q687.34143,883.1014,687.14087,882.68256Q683.0686,877.2558,668.8882,877.7707Q668.74274,864.9427,668.2032,866.15656L664.3805,864.17035L651.0819,864.3922Q647.8676,861.9724,644.2686,858.0067Q638.8516,857.23914,637.941,863.83875L647.7167,873.7545Q647.6917,876.688,645.826,877.7124Q642.87146,879.1891,638.57605,877.6969Q630.26624,868.8222,624.9372,865.4716L617.969,875.43854Q616.1467,875.9356,613.5559,874.4854Q612.782,873.27936,613.2499,864.8996L629.6765,850.797L633.16187,846.23645Q630.60187,841.1262,614.8442,849.7542Q612.8549,846.3958,612.74756,844.2211L608.48737,843.3277Q601.46356,834.1911,599.385,832.45776 Z"/>
</g>
<g style="fill:rgb(0,0,0); fill-opacity:1.0; stroke-linejoin: miter">
</g>
<g style="fill:rgb(0,0,0); fill-opacity:1.0; stroke-linejoin: miter">
</g>
<g style="fill:rgb(0,0,0); fill-opacity:1.0; stroke-linejoin: miter">
</g>
<g style="fill:rgb(0,0,0); fill-opacity:1.0; stroke-linejoin: miter">
</g>
<g style="fill:rgb(0,0,0); fill-opacity:1.0; stroke-linejoin: miter">
</g>
<g style="fill:rgb(0,0,0); fill-opacity:1.0; stroke-linejoin: miter">
</g>
<g style="fill:rgb(0,0,0); fill-opacity:1.0; stroke-linejoin: miter">
</g>
<g style="fill:rgb(0,0,0); fill-opacity:1.0; stroke-linejoin: miter">
</g>
<g style="fill:rgb(0,0,0); fill-opacity:1.0; stroke-linejoin: miter">
</g>
<g style="fill:rgb(0,0,0); fill-opacity:1.0; stroke-linejoin: miter">
</g>
<g style="fill:rgb(0,0,0); fill-opacity:1.0; stroke-linejoin: miter">
</g>
<g style="fill:rgb(0,0,0); fill-opacity:1.0; stroke-linejoin: miter">
</g>
<g style="fill:rgb(0,0,0); fill-opacity:1.0; stroke-linejoin: miter">
</g>
<g style="fill:rgb(0,0,0); fill-opacity:1.0; stroke-linejoin: miter">
</g>
<g style="fill:rgb(0,0,0); fill-opacity:1.0; stroke-linejoin: miter">
</g>
<g style="fill:rgb(0,0,0); fill-opacity:1.0; stroke-linejoin: miter">
</g>
<g style="fill:rgb(0,0,0); fill-opacity:1.0; stroke-linejoin: miter">
</g>
<g style="fill:rgb(0,0,0); fill-opacity:1.0; stroke-linejoin: miter">
</g>
<g style="fill:rgb(0,0,0); fill-opacity:1.0; stroke-linejoin: miter">
</g>
<g style="fill:rgb(0,0,0); fill-opacity:1.0; stroke-linejoin: miter">
</g>
<g style="fill:rgb(0,0,0); fill-opacity:1.0; stroke-linejoin: miter">
</g>
<g style="fill:rgb(0,0,0); fill-opacity:1.0; stroke-linejoin: miter">
</g>
<g style="fill:rgb(0,0,0); fill-opacity:1.0; stroke-linejoin: miter">
</g>
<g style="fill:rgb(0,0,0); fill-opacity:1.0; stroke-linejoin: miter">
</g>
<g style="fill:rgb(0,0,0); fill-opacity:1.0; stroke-linejoin: miter">
</g>
<g style="fill:rgb(0,0,0); fill-opacity:1.0; stroke-linejoin: miter">
</g>
<g style="fill:rgb(0,0,0); fill-opacity:1.0; stroke-linejoin: miter">
</g>
<g style="fill:rgb(0,0,0); fill-opacity:1.0; stroke-linejoin: miter">
</g>
<g style="fill:rgb(0,0,0); fill-opacity:1.0; stroke-linejoin: miter">
</g>
<g style="fill:rgb(0,0,0); fill-opacity:1.0; stroke-linejoin: miter">
</g>
<g style="fill:rgb(0,0,0); fill-opacity:1.0; stroke-linejoin: miter">
</g>
<g style="fill:rgb(0,0,0); fill-opacity:1.0; stroke-linejoin: miter">
<path d="M567.0842,1039.0735L567.0842,1039.0754L567.0842,1039.0736L567.0842,1039.0735"/>
</g>
<g style="fill:rgb(0,0,0); fill-opacity:1.0; stroke-linejoin: miter">
</g>
<g style="fill:rgb(0,0,0); fill-opacity:1.0; stroke-linejoin: miter">
</g>
<g style="fill:rgb(0,0,0); fill-opacity:1.0; stroke-linejoin: miter">
</g>
<g style="fill:rgb(0,0,0); fill-opacity:1.0; stroke-linejoin: miter">
</g>
<g style="fill:rgb(0,0,0); fill-opacity:1.0; stroke-linejoin: miter">
</g>
<g style="fill:rgb(0,0,0); fill-opacity:1.0; stroke-linejoin: miter">
</g>
<g style="fill:rgb(0,0,0); fill-opacity:1.0; stroke-linejoin: miter">
</g>
<g style="fill:rgb(0,0,0); fill-opacity:1.0; stroke-linejoin: miter">
</g>
<g style="fill:rgb(0,0,0); fill-opacity:1.0; stroke-linejoin: miter">
</g>
<g style="fill:rgb(0,0,0); fill-opacity:1.0; stroke-linejoin: miter">
</g>
<g style="fill:rgb(0,0,0); fill-opacity:1.0; stroke-linejoin: miter">
</g>
<g style="fill:rgb(0,0,0); fill-opacity:1.0; stroke-linejoin: miter">
</g>
<g style="fill:rgb(0,0,0); fill-opacity:1.0; stroke-linejoin: miter">
</g>
<g style="fill:rgb(0,0,0); fill-opacity:1.0; stroke-linejoin: miter">
</g>
<g style="fill:rgb(0,0,0); fill-opacity:1.0; stroke-linejoin: miter">
</g>
<g style="fill:rgb(0,0,0); fill-opacity:1.0; stroke-linejoin: miter">
</g>
<g style="fill:rgb(0,0,0); fill-opacity:1.0; stroke-linejoin: miter">
</g>
<g style="fill:rgb(0,0,0); fill-opacity:1.0; stroke-linejoin: miter">
</g>
<g style="fill:rgb(0,0,0); fill-opacity:1.0; stroke-linejoin: miter">
</g>
<g style="fill:rgb(0,0,0); fill-opacity:1.0; stroke-linejoin: miter">
</g>
<g style="fill:rgb(0,0,0); fill-opacity:1.0; stroke-linejoin: miter">
</g>
<g style="fill:rgb(0,0,0); fill-opacity:1.0; stroke-linejoin: miter">
</g>
<g style="fill:rgb(0,0,0); fill-opacity:1.0; stroke-linejoin: miter">
<path d="M495.93655,997.00085L495.93292,997.0017Q495.47122,997.11237,495.13965,997.4522L495.2188,997.3747L495.30017,997.304L495.38376,997.2402L495.46954,997.18317L495.55753,997.13306L495.64774,997.0897L495.74017,997.0533L495.83478,997.0236L495.93164,997.00085L495.93655,997.00085 M499.69186,996.3874L499.42523,996.39484Q498.28635,996.4542,495.98868,996.9887L494.2629,997.0791Q494.0969,997.0792,493.5589,997.2872Q492.2972,997.85474,492.00128,999.9337Q491.74097,1001.4299,491.97556,1002.2594Q491.65356,1002.91266,491.70224,1004.48895L491.8073,1005.1599Q491.9547,1005.8302,492.27155,1006.498Q492.58835,1007.16583,493.0746,1007.8312Q493.6719,1008.67456,494.17728,1009.0074Q494.62573,1009.3534,495.15823,1009.5644L496.68988,1010.13165Q496.8274,1010.17004,497.18323,1010.2104Q496.68274,1010.1575,497.00693,1010.2035L497.40762,1010.2361Q497.8853,1010.2361,498.21548,1010.02765Q498.5959,1009.7215,498.6277,1009.5978Q498.73743,1009.4154,498.81027,1009.1809Q499.5874,1009.85443,500.52563,1009.51825Q501.10452,1009.28613,501.3832,1008.7122Q501.67487,1008.6012,501.90283,1008.38745Q502.23267,1008.09985,502.46747,1007.4494Q503.03793,1005.34546,503.2045,1004.27783Q503.49887,1002.4121,502.65457,1001.6353Q501.5355,1000.9784,500.4224,1001.55054Q500.69974,1000.50793,500.64435,1000.4849Q500.64658,1000.1132,500.49384,999.7865Q500.8474,999.9471,501.382,1000.36505Q501.4969,1000.4494,501.7948,1000.5473Q502.39597,1000.68256,502.81097,1000.50006Q504.157,999.7986,503.7345,998.4129Q503.55115,997.7694,502.10233,996.98676Q501.0285,996.389,499.69186,996.3874"/>
</g>
<g style="fill:rgb(0,0,0); fill-opacity:1.0; stroke-linejoin: miter">
<path d="M510.2122,985.71545C509.40305,985.71545,508.70572,986.3235,508.61298,987.14655Q508.2887,990.0249,508.1017,992.7558L508.10095,992.7558Q508.05045,993.2609,507.96933,993.8128L507.96915,993.8128Q506.86792,1000.5703,506.4689,1001.8624L506.45648,1001.9047Q506.0254,1003.4494,504.479,1006.3069C504.44788,1006.36444,504.4203,1006.42377,504.3964,1006.48456L504.39136,1006.48456Q504.15063,1006.8319,503.1526,1007.7019L503.15262,1007.7019C502.48178,1008.2867,502.412,1009.30457,502.99677,1009.9754C503.31537,1010.3409,503.76254,1010.52795,504.2121,1010.52795C504.58765,1010.52795,504.9649,1010.3974,505.27026,1010.1312Q506.71756,1008.86957,507.17938,1008.1055L507.1794,1008.1055Q507.2718,1007.9527,507.33954,1007.8015L507.33447,1007.8015Q509.01645,1004.6879,509.5487,1002.81335L509.5482,1002.81335Q510.01355,1001.30634,511.15396,994.3063L511.1578,994.28156Q511.25415,993.6262,511.31308,993.0224L511.31693,992.9759Q511.49908,990.3152,511.81543,987.5074C511.91507,986.62305,511.27896,985.8254,510.39462,985.7257C510.3333,985.7188,510.27243,985.71545,510.2122,985.71545 Z"/>
</g>
<g style="fill:rgb(0,0,0); fill-opacity:1.0; stroke-linejoin: miter">
<path d="M511.2984,986.9347C511.0896,986.9347,510.87735,986.9755,510.67285,987.06177C509.85287,987.40765,509.4685,988.35266,509.81436,989.17267Q510.02325,989.6677,510.04373,989.9264L510.04337,989.9264Q510.1925,992.5447,510.20102,993.67944L510.20108,993.6854Q510.21808,995.1864,509.70923,996.6209L509.7092,996.6209L509.7088,996.622Q508.11862,1001.1059,506.65738,1003.6011L506.65714,1003.6011Q505.18896,1006.01526,504.41287,1007.19366L504.40784,1007.19366C503.75793,1007.21106,503.15628,1007.62366,502.9293,1008.27386Q502.71332,1008.8926,502.64597,1009.2824L502.64597,1009.2824Q502.4463,1010.4379,503.23624,1011.0803L503.23627,1011.0803Q503.7583,1011.50494,504.29425,1011.50494Q504.93887,1011.50494,505.60367,1010.8907L505.60367,1010.8907Q505.81506,1010.6954,506.07852,1010.37683L506.0764,1010.37683Q506.79523,1009.57715,509.42468,1005.25256L509.43832,1005.22974Q511.04947,1002.4786,512.7369,997.7254L512.73663,997.7254L512.7465,997.6983Q513.446,995.7264,513.42365,993.655L513.42365,993.655Q513.41437,992.4324,513.2588,989.7071L513.25635,989.6715Q513.1947,988.89465,512.78375,987.9202C512.5241,987.3047,511.9269,986.9347,511.2984,986.9347 Z"/>
</g>
<g style="fill:rgb(0,0,0); fill-opacity:1.0; stroke-linejoin: miter">
<path d="M506.4252,1009.4015Q506.15363,1009.6546,505.70697,1009.7462L505.70697,1009.7462C505.9793,1009.69037,506.2214,1009.5688,506.42014,1009.4015 Z M505.0594,1006.58923Q504.3749,1006.7296,503.92313,1007.4008L503.92313,1007.4008Q503.69037,1007.7466,503.2869,1008.58026L503.28186,1008.58026Q503.25818,1008.61237,503.2306,1008.6459L503.22556,1008.6459Q500.89014,1010.80853,500.21436,1011.6703L500.20935,1011.6703Q500.08826,1011.81573,499.98523,1011.9953L499.98526,1011.9953Q499.62396,1012.6249,498.6224,1015.294L498.60513,1015.34235Q497.90805,1017.39685,497.97766,1019.42505L497.97897,1019.4551Q498.0764,1021.29224,498.8536,1022.4899C499.1622,1022.9655,499.6792,1023.2243,500.20682,1023.2243C500.50745,1023.2243,500.8115,1023.1403,501.08246,1022.9645C501.82898,1022.48004,502.04147,1021.4822,501.55704,1020.73566Q501.2537,1020.2682,501.19882,1019.31445L501.1985,1019.31445Q501.14987,1017.89813,501.64075,1016.4262L501.63974,1016.4262Q502.48914,1014.16254,502.74673,1013.66174L502.74814,1013.66174Q503.27133,1012.9914,505.50772,1010.9249C505.55093,1010.885,505.59174,1010.8429,505.6303,1010.7985Q505.8829,1010.50793,506.0715,1010.2043C506.10205,1010.1551,506.13,1010.1042,506.1551,1010.052Q506.4125,1009.5163,506.53757,1009.2973L506.5325,1009.2973C506.8949,1008.9279,507.0732,1008.3909,506.96204,1007.8457C506.8691,1007.3901,506.5924,1007.0189,506.2709,1007.0189C505.97705,1007.0189,505.64578,1007.3289,505.38318,1008.1677L505.0594,1006.58923 Z"/>
</g>
<g style="fill:rgb(0,0,0); fill-opacity:1.0; stroke-linejoin: miter">
<path d="M508.46722,993.3353C507.78915,993.3353,507.15823,993.7668,506.936,994.4462L505.34045,999.32446L505.34033,999.32446Q505.12308,999.96185,504.87173,1000.56836L504.86826,1000.5768Q504.2641,1002.05817,504.06998,1002.4636L504.06534,1002.4734Q502.0405,1006.77637,501.72552,1007.2768L501.72284,1007.2768C501.6659,1007.35706,501.61633,1007.4425,501.5749,1007.53204Q501.37158,1007.9712,501.26376,1008.4273C501.05902,1009.2934,501.59512,1010.1614,502.46118,1010.36615C502.58585,1010.3956,502.71057,1010.4097,502.8333,1010.4097C503.56342,1010.4097,504.2248,1009.91016,504.40005,1009.16876Q504.4206,1009.0819,504.4542,1008.99335L504.45306,1008.99335Q504.8723,1008.32715,506.97675,1003.85535L506.9767,1003.85535Q507.2117,1003.36456,507.84894,1001.80225L507.8489,1001.80225Q508.14395,1001.09033,508.39764,1000.3439L508.4035,1000.3263L509.99905,995.44806C510.2757,994.60223,509.8143,993.69226,508.96844,993.4156C508.8021,993.36115,508.63324,993.3353,508.46722,993.3353 Z"/>
</g>
<g style="fill:rgb(0,0,0); fill-opacity:1.0; stroke-linejoin: miter">
<path d="M510.2714,990.5485C509.68787,990.5485,509.1247,990.8665,508.8384,991.42065Q506.65973,995.6382,506.10226,997.0138L506.10123,997.0138Q505.37256,998.6574,505.2173,1000.0419C505.1181,1000.9263,505.7546,1001.72363,506.639,1001.8228C506.7,1001.82965,506.76062,1001.833,506.82062,1001.833C507.6301,1001.833,508.32758,1001.2245,508.41992,1000.4011Q508.5217,999.4936,509.06628,998.2776L509.08908,998.2241Q509.59076,996.9861,511.7017,992.8998C512.11017,992.10913,511.8003,991.137,511.0096,990.7286C510.77313,990.6064,510.52042,990.5485,510.2714,990.5485 Z"/>
</g>
<g style="fill:rgb(0,0,0); fill-opacity:1.0; stroke-linejoin: miter">
<path d="M516.92035,985.50073C516.5021,985.50073,516.08417,985.6626,515.76855,985.98517Q511.49084,990.35706,510.84058,991.5399L510.83804,991.5399Q510.29404,992.3096,509.8199,993.164L509.8119,993.1786Q508.96198,994.74817,507.56808,997.39343L507.56064,997.4077Q507.2961,997.9221,507.16754,998.3063C506.88507,999.1502,507.3402,1000.0633,508.18414,1000.34576C508.3538,1000.4025,508.5262,1000.4295,508.69577,1000.4295C509.3697,1000.4295,509.99796,1000.0034,510.22363,999.3291Q510.27304,999.1815,510.41934,998.89575L510.41922,998.89575Q511.79794,996.2792,512.63794,994.7277L512.6378,994.7277Q513.0541,993.97754,513.5316,993.31323C513.58185,993.24335,513.6262,993.1698,513.66486,993.0925L513.6647,993.0925Q514.10266,992.2959,518.072,988.2391C518.6944,987.60297,518.68335,986.58276,518.04724,985.9604C517.7337,985.6536,517.3269,985.50073,516.92035,985.50073 Z"/>
</g>
<g style="fill:rgb(0,0,0); fill-opacity:1.0; stroke-linejoin: miter">
<path d="M519.13464,983.85724C518.72626,983.85724,518.3176,984.01154,518.0037,984.3208L514.56464,987.7091L514.5369,987.73706Q513.7091,988.5935,512.48236,990.0661L512.47974,990.0661Q511.17395,991.50385,508.64465,995.772C508.19095,996.5376,508.4438,997.526,509.20938,997.9797C509.4671,998.1324,509.75003,998.2051,510.02936,998.2051C510.57983,998.2051,511.11612,997.92285,511.4171,997.4149Q513.82935,993.34436,514.89935,992.1959L514.95844,992.12885Q516.08795,990.773,516.8272,990.00476L516.8265,990.00476L520.26556,986.61646C520.89954,985.9919,520.90704,984.9717,520.2825,984.3377C519.96716,984.01764,519.551,983.85724,519.13464,983.85724 Z"/>
</g>
</g>
<g id="layer8" opacity="0.0">
<g style="fill:rgb(0,0,0); fill-opacity:0.99607843; stroke-linejoin: miter">
</g>
<g style="fill:rgb(0,0,0); fill-opacity:0.99607843; stroke-linejoin: miter">
</g>
<g style="fill:rgb(0,0,0); fill-opacity:0.99607843; stroke-linejoin: miter">
</g>
<g style="fill:rgb(0,0,0); fill-opacity:0.99607843; stroke-linejoin: miter">
</g>
<g style="fill:rgb(0,0,0); fill-opacity:0.99607843; stroke-linejoin: miter">
<path d="M574.58185,841.1501L574.06525,841.1628Q571.93097,841.3708,568.6991,843.9793Q560.3109,862.7371,550.91345,868.88947Q547.872,869.93835,544.08295,868.0038Q533.8378,854.99304,533.8486,856.2147L525.9692,874.9569Q529.9384,877.704,523.1499,890.1387Q520.6323,891.99316,519.355,892.00977L500.4292,892.0908Q500.5171,893.5127,501.40723,894.14453Q507.48584,896.3496,513.0742,897.0625Q514.0581,898.3955,513.73193,898.7041Q514.5244,901.13477,468.8365,906.5128Q467.28033,909.8839,469.2281,911.5763Q489.28082,915.881,489.8155,917.088L489.8282,919.3673Q483.49664,925.99426,483.77692,927.54895Q497.78326,936.08704,496.899,938.2306L493.1568,952.1554L481.52502,962.61255Q494.1812,967.6964,497.73248,974.2853L482.67737,993.2883Q479.75647,997.7092,480.13,998.52466Q481.48303,999.29614,486.84436,999.2278Q486.08167,1003.20825,492.73254,1005.8342L506.10657,1008.24927L476.46936,1029.9065Q475.25793,1031.2815,475.47717,1032.4133Q476.79797,1034.429,489.6388,1036.3752L508.63782,1025.4905Q511.27008,1025.0411,521.08746,1026.0704Q518.9864,1028.8097,533.40533,1043.1398Q535.75006,1045.4357,547.06696,1046.7745Q547.9776,1047.216,548.7276,1048.3029Q550.6485,1053.2052,543.2808,1071.0665Q542.4317,1071.84,583.6411,1065.7344Q586.60693,1065.4971,590.771,1066.3711L602.64795,1069.8105Q609.71045,1083.0713,615.47754,1087.7969L622.6792,1087.6318L619.35785,1077.1571Q618.8427,1075.576,619.6298,1074.2997Q621.6093,1072.7675,626.6528,1075.0848Q627.47845,1075.2977,638.7836,1091.6669Q639.2011,1076.4608,641.4296,1059.247Q642.8295,1050.9384,644.73334,1049.8055Q647.6141,1048.1853,652.10724,1048.5925Q668.5315,1033.7662,673.87085,1032.2848L675.4314,1032.1852Q678.1184,1035.7545,682.22,1036.5153L699.4236,1030.2731L711.60315,1037.2925Q716.3546,1037.8882,720.47815,1034.8745L720.3258,1032.9937Q715.86487,1032.9976,713.6627,1030.9341L713.7052,1022.7583L705.7283,1013.3512L702.27606,996.5923L709.4381,977.353Q713.49084,973.9497,719.7208,972.31104Q717.106,967.32855,713.4313,965.33545L713.2394,963.03955Q725.65924,956.8403,725.7735,953.86176Q725.835,952.80707,724.295,951.05414Q714.84094,948.9351,714.5504,947.2066Q712.78625,935.50446,707.1348,925.4682L706.50543,919.9848Q712.4742,897.71234,729.1202,895.87054Q728.2027,895.80804,727.3604,895.93695Q725.43207,892.24646,717.13727,889.4428L696.62555,888.1801L690.8238,880.88324Q683.1651,881.0473,676.0489,875.9555Q664.2819,860.32184,666.3057,845.78076L661.42395,852.3052Q660.069,852.5952,656.09094,849.43115L653.9211,849.7955L640.9367,860.75446Q633.78,859.03876,632.8694,858.2253Q626.1721,854.10516,622.08026,848.13336Q615.8903,845.8853,615.32587,846.0445Q613.51636,846.1091,611.9363,848.321Q614.72095,855.2819,614.18823,857.7985Q612.4514,860.7038,604.77026,859.9567Q599.2151,857.22626,598.4109,848.2419L585.5028,862.19904L580.6209,843.5085Q579.89874,841.64716,574.58185,841.1501 Z"/>
</g>
<g style="fill:rgb(0,0,0); fill-opacity:0.99607843; stroke-linejoin: miter">
</g>
</g>
<g id="layer9" opacity="0.0">
<g style="fill:rgb(0,0,0); fill-opacity:0.99607843; stroke-linejoin: miter">
<path d="M634.11017,824.86346L633.6064,828.8894Q632.10754,843.48486,614.94446,868.1036Q606.47595,880.75085,591.8912,883.9518Q583.0793,886.3221,570.4553,878.3548Q555.9292,889.6648,552.4209,887.5901Q519.18317,866.2136,511.78717,857.94116Q508.68805,856.1604,507.89655,857.03394Q507.732,859.593,507.3028,857.97974L511.36884,869.54297Q527.8684,886.608,530.4568,891.9063Q535.283,903.1623,533.9731,911.2147Q533.3115,914.3379,530.02936,918.45764Q523.3859,926.0101,517.7312,930.31635L517.27374,931.66705Q515.8788,937.67596,521.4072,953.3593Q521.25836,959.45514,519.06995,962.43085Q495.05966,990.41376,477.5295,999.8389Q479.63895,1001.7697,490.70178,999.1453Q510.75385,986.76886,515.85486,986.8068Q525.8036,988.82733,530.9881,993.61676Q541.01855,1010.8168,545.1499,1014.9193Q550.4141,1020.7363,567.4073,1028.9359Q573.3907,1033.6805,575.4063,1038.0272Q576.44104,1040.185,576.26917,1044.2012Q570.82117,1058.5509,572.3932,1077.958Q572.28577,1079.4814,568.8859,1084.5084Q568.8444,1086.402,570.74286,1086.8492Q571.903,1087.1002,573.1164,1085.525L595.7929,1038.5865Q607.7694,1040.2085,610.14874,1039.4359Q616.8074,1032.9412,632.69293,1028.4027L645.3758,1019.9292Q647.79614,1020.28894,655.3025,1024.6552Q658.8655,1022.45984,686.6397,1032.9308Q662.00543,1011.34973,665.0921,1000.4612Q668.6003,991.5913,669.6296,991.0088Q682.14056,981.4328,682.7757,978.56354L684.04694,959.3942Q691.79767,947.0912,690.50903,939.1013Q693.1197,933.88776,695.9273,930.27594Q698.7753,927.22894,702.24255,926.9447L725.07574,927.65234Q729.24713,927.25586,728.80524,925.9414Q728.00775,924.05457,725.9849,923.9009Q713.967,926.50696,696.3817,923.73083L682.5583,926.4196Q667.98987,917.03186,664.3582,918.7059Q661.4083,906.6974,644.6685,889.80426Q642.3204,886.9244,664.6709,860.1122L636.37256,878.19183L631.6647,880.57916Q621.6351,885.2258,620.52814,881.19165Q619.21454,879.6545,619.842,878.38153Q640.04987,846.809,641.1757,841.75616Q642.0776,839.81573,634.11017,824.86346"/>
</g>
</g>
</svg>